<mxfile host="Electron" agent="Mozilla/5.0 (Windows NT 10.0; Win64; x64) AppleWebKit/537.36 (KHTML, like Gecko) draw.io/28.2.8 Chrome/140.0.7339.240 Electron/38.4.0 Safari/537.36" version="28.2.8">
  <diagram name="Page-1" id="r_aBiDpRuZcN3SuQjWWF">
    <mxGraphModel dx="5704" dy="2195" grid="1" gridSize="10" guides="1" tooltips="1" connect="1" arrows="1" fold="1" page="1" pageScale="1" pageWidth="1654" pageHeight="1169" math="0" shadow="0">
      <root>
        <mxCell id="0" />
        <mxCell id="1" parent="0" />
        <mxCell id="YcBM6duPuS-zIyn06veA-122" value="Modéle entité-association&lt;div&gt;Version 2.0.0&amp;nbsp;&lt;/div&gt;" style="html=1;whiteSpace=wrap;fillColor=light-dark(#fadb75, #ededed);strokeColor=light-dark(#272629, #ededed);" parent="1" vertex="1">
          <mxGeometry x="1200" y="1240" width="280" height="50" as="geometry" />
        </mxCell>
        <mxCell id="d_u-ACmsa0czZYW_iE1Z-1" value="&lt;b&gt;Propriete&lt;/b&gt;" style="swimlane;fontStyle=0;childLayout=stackLayout;horizontal=1;startSize=26;fillColor=#FADB75;horizontalStack=0;resizeParent=1;resizeParentMax=0;resizeLast=0;collapsible=1;marginBottom=0;whiteSpace=wrap;html=1;strokeColor=#272629;" vertex="1" parent="1">
          <mxGeometry x="760" y="1700" width="160" height="546" as="geometry" />
        </mxCell>
        <mxCell id="d_u-ACmsa0czZYW_iE1Z-2" value="&lt;u&gt;&lt;b&gt;ProprieteID&lt;/b&gt;&lt;/u&gt;" style="text;strokeColor=none;fillColor=none;align=left;verticalAlign=top;spacingLeft=4;spacingRight=4;overflow=hidden;rotatable=0;points=[[0,0.5],[1,0.5]];portConstraint=eastwest;whiteSpace=wrap;html=1;" vertex="1" parent="d_u-ACmsa0czZYW_iE1Z-1">
          <mxGeometry y="26" width="160" height="26" as="geometry" />
        </mxCell>
        <mxCell id="d_u-ACmsa0czZYW_iE1Z-3" value="TitrePropriete" style="text;strokeColor=none;fillColor=none;align=left;verticalAlign=top;spacingLeft=4;spacingRight=4;overflow=hidden;rotatable=0;points=[[0,0.5],[1,0.5]];portConstraint=eastwest;whiteSpace=wrap;html=1;" vertex="1" parent="d_u-ACmsa0czZYW_iE1Z-1">
          <mxGeometry y="52" width="160" height="26" as="geometry" />
        </mxCell>
        <mxCell id="d_u-ACmsa0czZYW_iE1Z-4" value="DescriptionPropriete" style="text;strokeColor=none;fillColor=none;align=left;verticalAlign=top;spacingLeft=4;spacingRight=4;overflow=hidden;rotatable=0;points=[[0,0.5],[1,0.5]];portConstraint=eastwest;whiteSpace=wrap;html=1;" vertex="1" parent="d_u-ACmsa0czZYW_iE1Z-1">
          <mxGeometry y="78" width="160" height="26" as="geometry" />
        </mxCell>
        <mxCell id="d_u-ACmsa0czZYW_iE1Z-5" value="Adresse" style="text;strokeColor=none;fillColor=none;align=left;verticalAlign=top;spacingLeft=4;spacingRight=4;overflow=hidden;rotatable=0;points=[[0,0.5],[1,0.5]];portConstraint=eastwest;whiteSpace=wrap;html=1;" vertex="1" parent="d_u-ACmsa0czZYW_iE1Z-1">
          <mxGeometry y="104" width="160" height="26" as="geometry" />
        </mxCell>
        <mxCell id="d_u-ACmsa0czZYW_iE1Z-6" value="ConsommationEnergie" style="text;strokeColor=none;fillColor=none;align=left;verticalAlign=top;spacingLeft=4;spacingRight=4;overflow=hidden;rotatable=0;points=[[0,0.5],[1,0.5]];portConstraint=eastwest;whiteSpace=wrap;html=1;" vertex="1" parent="d_u-ACmsa0czZYW_iE1Z-1">
          <mxGeometry y="130" width="160" height="26" as="geometry" />
        </mxCell>
        <mxCell id="d_u-ACmsa0czZYW_iE1Z-7" value="ClasseEnergie" style="text;strokeColor=none;fillColor=none;align=left;verticalAlign=top;spacingLeft=4;spacingRight=4;overflow=hidden;rotatable=0;points=[[0,0.5],[1,0.5]];portConstraint=eastwest;whiteSpace=wrap;html=1;" vertex="1" parent="d_u-ACmsa0czZYW_iE1Z-1">
          <mxGeometry y="156" width="160" height="26" as="geometry" />
        </mxCell>
        <mxCell id="d_u-ACmsa0czZYW_iE1Z-8" value="SurfaceHabitable" style="text;strokeColor=none;fillColor=none;align=left;verticalAlign=top;spacingLeft=4;spacingRight=4;overflow=hidden;rotatable=0;points=[[0,0.5],[1,0.5]];portConstraint=eastwest;whiteSpace=wrap;html=1;" vertex="1" parent="d_u-ACmsa0czZYW_iE1Z-1">
          <mxGeometry y="182" width="160" height="26" as="geometry" />
        </mxCell>
        <mxCell id="d_u-ACmsa0czZYW_iE1Z-9" value="SurfaceTerrain" style="text;strokeColor=none;fillColor=none;align=left;verticalAlign=top;spacingLeft=4;spacingRight=4;overflow=hidden;rotatable=0;points=[[0,0.5],[1,0.5]];portConstraint=eastwest;whiteSpace=wrap;html=1;" vertex="1" parent="d_u-ACmsa0czZYW_iE1Z-1">
          <mxGeometry y="208" width="160" height="26" as="geometry" />
        </mxCell>
        <mxCell id="d_u-ACmsa0czZYW_iE1Z-10" value="NombrePieces" style="text;strokeColor=none;fillColor=none;align=left;verticalAlign=top;spacingLeft=4;spacingRight=4;overflow=hidden;rotatable=0;points=[[0,0.5],[1,0.5]];portConstraint=eastwest;whiteSpace=wrap;html=1;" vertex="1" parent="d_u-ACmsa0czZYW_iE1Z-1">
          <mxGeometry y="234" width="160" height="26" as="geometry" />
        </mxCell>
        <mxCell id="d_u-ACmsa0czZYW_iE1Z-11" value="NombreChambres" style="text;strokeColor=none;fillColor=none;align=left;verticalAlign=top;spacingLeft=4;spacingRight=4;overflow=hidden;rotatable=0;points=[[0,0.5],[1,0.5]];portConstraint=eastwest;whiteSpace=wrap;html=1;" vertex="1" parent="d_u-ACmsa0czZYW_iE1Z-1">
          <mxGeometry y="260" width="160" height="26" as="geometry" />
        </mxCell>
        <mxCell id="d_u-ACmsa0czZYW_iE1Z-12" value="NombreSallesBain" style="text;strokeColor=none;fillColor=none;align=left;verticalAlign=top;spacingLeft=4;spacingRight=4;overflow=hidden;rotatable=0;points=[[0,0.5],[1,0.5]];portConstraint=eastwest;whiteSpace=wrap;html=1;" vertex="1" parent="d_u-ACmsa0czZYW_iE1Z-1">
          <mxGeometry y="286" width="160" height="26" as="geometry" />
        </mxCell>
        <mxCell id="d_u-ACmsa0czZYW_iE1Z-13" value="Garage" style="text;strokeColor=none;fillColor=none;align=left;verticalAlign=top;spacingLeft=4;spacingRight=4;overflow=hidden;rotatable=0;points=[[0,0.5],[1,0.5]];portConstraint=eastwest;whiteSpace=wrap;html=1;" vertex="1" parent="d_u-ACmsa0czZYW_iE1Z-1">
          <mxGeometry y="312" width="160" height="26" as="geometry" />
        </mxCell>
        <mxCell id="d_u-ACmsa0czZYW_iE1Z-14" value="Parking" style="text;strokeColor=none;fillColor=none;align=left;verticalAlign=top;spacingLeft=4;spacingRight=4;overflow=hidden;rotatable=0;points=[[0,0.5],[1,0.5]];portConstraint=eastwest;whiteSpace=wrap;html=1;" vertex="1" parent="d_u-ACmsa0czZYW_iE1Z-1">
          <mxGeometry y="338" width="160" height="26" as="geometry" />
        </mxCell>
        <mxCell id="d_u-ACmsa0czZYW_iE1Z-15" value="Jardin" style="text;strokeColor=none;fillColor=none;align=left;verticalAlign=top;spacingLeft=4;spacingRight=4;overflow=hidden;rotatable=0;points=[[0,0.5],[1,0.5]];portConstraint=eastwest;whiteSpace=wrap;html=1;" vertex="1" parent="d_u-ACmsa0czZYW_iE1Z-1">
          <mxGeometry y="364" width="160" height="26" as="geometry" />
        </mxCell>
        <mxCell id="d_u-ACmsa0czZYW_iE1Z-16" value="Balcon" style="text;strokeColor=none;fillColor=none;align=left;verticalAlign=top;spacingLeft=4;spacingRight=4;overflow=hidden;rotatable=0;points=[[0,0.5],[1,0.5]];portConstraint=eastwest;whiteSpace=wrap;html=1;" vertex="1" parent="d_u-ACmsa0czZYW_iE1Z-1">
          <mxGeometry y="390" width="160" height="26" as="geometry" />
        </mxCell>
        <mxCell id="d_u-ACmsa0czZYW_iE1Z-17" value="Terrasse" style="text;strokeColor=none;fillColor=none;align=left;verticalAlign=top;spacingLeft=4;spacingRight=4;overflow=hidden;rotatable=0;points=[[0,0.5],[1,0.5]];portConstraint=eastwest;whiteSpace=wrap;html=1;" vertex="1" parent="d_u-ACmsa0czZYW_iE1Z-1">
          <mxGeometry y="416" width="160" height="26" as="geometry" />
        </mxCell>
        <mxCell id="d_u-ACmsa0czZYW_iE1Z-18" value="EtatBien" style="text;strokeColor=none;fillColor=none;align=left;verticalAlign=top;spacingLeft=4;spacingRight=4;overflow=hidden;rotatable=0;points=[[0,0.5],[1,0.5]];portConstraint=eastwest;whiteSpace=wrap;html=1;" vertex="1" parent="d_u-ACmsa0czZYW_iE1Z-1">
          <mxGeometry y="442" width="160" height="26" as="geometry" />
        </mxCell>
        <mxCell id="d_u-ACmsa0czZYW_iE1Z-19" value="AnneeConstruction" style="text;strokeColor=none;fillColor=none;align=left;verticalAlign=top;spacingLeft=4;spacingRight=4;overflow=hidden;rotatable=0;points=[[0,0.5],[1,0.5]];portConstraint=eastwest;whiteSpace=wrap;html=1;" vertex="1" parent="d_u-ACmsa0czZYW_iE1Z-1">
          <mxGeometry y="468" width="160" height="26" as="geometry" />
        </mxCell>
        <mxCell id="d_u-ACmsa0czZYW_iE1Z-20" value="&lt;font style=&quot;color: rgb(250, 219, 117);&quot;&gt;PersonneID&lt;/font&gt;" style="text;strokeColor=none;fillColor=none;align=left;verticalAlign=top;spacingLeft=4;spacingRight=4;overflow=hidden;rotatable=0;points=[[0,0.5],[1,0.5]];portConstraint=eastwest;whiteSpace=wrap;html=1;" vertex="1" parent="d_u-ACmsa0czZYW_iE1Z-1">
          <mxGeometry y="494" width="160" height="26" as="geometry" />
        </mxCell>
        <mxCell id="d_u-ACmsa0czZYW_iE1Z-22" value="&lt;font style=&quot;color: rgb(250, 219, 117);&quot;&gt;TypeProprieteID&lt;/font&gt;" style="text;strokeColor=none;fillColor=none;align=left;verticalAlign=top;spacingLeft=4;spacingRight=4;overflow=hidden;rotatable=0;points=[[0,0.5],[1,0.5]];portConstraint=eastwest;whiteSpace=wrap;html=1;" vertex="1" parent="d_u-ACmsa0czZYW_iE1Z-1">
          <mxGeometry y="520" width="160" height="26" as="geometry" />
        </mxCell>
        <mxCell id="d_u-ACmsa0czZYW_iE1Z-72" style="edgeStyle=orthogonalEdgeStyle;rounded=0;orthogonalLoop=1;jettySize=auto;html=1;entryX=0.5;entryY=0;entryDx=0;entryDy=0;startArrow=classic;startFill=1;endArrow=none;endFill=0;" edge="1" parent="1" source="d_u-ACmsa0czZYW_iE1Z-24" target="d_u-ACmsa0czZYW_iE1Z-60">
          <mxGeometry relative="1" as="geometry" />
        </mxCell>
        <mxCell id="d_u-ACmsa0czZYW_iE1Z-101" style="edgeStyle=orthogonalEdgeStyle;rounded=0;orthogonalLoop=1;jettySize=auto;html=1;exitX=0.25;exitY=0;exitDx=0;exitDy=0;entryX=0;entryY=0.5;entryDx=0;entryDy=0;" edge="1" parent="1" source="d_u-ACmsa0czZYW_iE1Z-24" target="d_u-ACmsa0czZYW_iE1Z-92">
          <mxGeometry relative="1" as="geometry" />
        </mxCell>
        <mxCell id="d_u-ACmsa0czZYW_iE1Z-24" value="&lt;b&gt;Dossier&lt;/b&gt;" style="swimlane;fontStyle=0;childLayout=stackLayout;horizontal=1;startSize=26;fillColor=#FADB75;horizontalStack=0;resizeParent=1;resizeParentMax=0;resizeLast=0;collapsible=1;marginBottom=0;whiteSpace=wrap;html=1;strokeColor=#272629;" vertex="1" parent="1">
          <mxGeometry x="400" y="1856" width="160" height="234" as="geometry" />
        </mxCell>
        <mxCell id="d_u-ACmsa0czZYW_iE1Z-25" value="&lt;b&gt;&lt;u&gt;DossierID&lt;/u&gt;&lt;/b&gt;" style="text;strokeColor=none;fillColor=none;align=left;verticalAlign=top;spacingLeft=4;spacingRight=4;overflow=hidden;rotatable=0;points=[[0,0.5],[1,0.5]];portConstraint=eastwest;whiteSpace=wrap;html=1;" vertex="1" parent="d_u-ACmsa0czZYW_iE1Z-24">
          <mxGeometry y="26" width="160" height="26" as="geometry" />
        </mxCell>
        <mxCell id="d_u-ACmsa0czZYW_iE1Z-26" value="TypeDossier" style="text;strokeColor=none;fillColor=none;align=left;verticalAlign=top;spacingLeft=4;spacingRight=4;overflow=hidden;rotatable=0;points=[[0,0.5],[1,0.5]];portConstraint=eastwest;whiteSpace=wrap;html=1;" vertex="1" parent="d_u-ACmsa0czZYW_iE1Z-24">
          <mxGeometry y="52" width="160" height="26" as="geometry" />
        </mxCell>
        <mxCell id="d_u-ACmsa0czZYW_iE1Z-27" value="Prix" style="text;strokeColor=none;fillColor=none;align=left;verticalAlign=top;spacingLeft=4;spacingRight=4;overflow=hidden;rotatable=0;points=[[0,0.5],[1,0.5]];portConstraint=eastwest;whiteSpace=wrap;html=1;" vertex="1" parent="d_u-ACmsa0czZYW_iE1Z-24">
          <mxGeometry y="78" width="160" height="26" as="geometry" />
        </mxCell>
        <mxCell id="d_u-ACmsa0czZYW_iE1Z-28" value="DateDebutDossier" style="text;strokeColor=none;fillColor=none;align=left;verticalAlign=top;spacingLeft=4;spacingRight=4;overflow=hidden;rotatable=0;points=[[0,0.5],[1,0.5]];portConstraint=eastwest;whiteSpace=wrap;html=1;" vertex="1" parent="d_u-ACmsa0czZYW_iE1Z-24">
          <mxGeometry y="104" width="160" height="26" as="geometry" />
        </mxCell>
        <mxCell id="d_u-ACmsa0czZYW_iE1Z-29" value="DateFinDossier" style="text;strokeColor=none;fillColor=none;align=left;verticalAlign=top;spacingLeft=4;spacingRight=4;overflow=hidden;rotatable=0;points=[[0,0.5],[1,0.5]];portConstraint=eastwest;whiteSpace=wrap;html=1;" vertex="1" parent="d_u-ACmsa0czZYW_iE1Z-24">
          <mxGeometry y="130" width="160" height="26" as="geometry" />
        </mxCell>
        <mxCell id="d_u-ACmsa0czZYW_iE1Z-30" value="StatutDossier" style="text;strokeColor=none;fillColor=none;align=left;verticalAlign=top;spacingLeft=4;spacingRight=4;overflow=hidden;rotatable=0;points=[[0,0.5],[1,0.5]];portConstraint=eastwest;whiteSpace=wrap;html=1;" vertex="1" parent="d_u-ACmsa0czZYW_iE1Z-24">
          <mxGeometry y="156" width="160" height="26" as="geometry" />
        </mxCell>
        <mxCell id="d_u-ACmsa0czZYW_iE1Z-31" value="&lt;font style=&quot;color: rgb(250, 219, 117);&quot;&gt;AgentID&lt;/font&gt;" style="text;strokeColor=none;fillColor=none;align=left;verticalAlign=top;spacingLeft=4;spacingRight=4;overflow=hidden;rotatable=0;points=[[0,0.5],[1,0.5]];portConstraint=eastwest;whiteSpace=wrap;html=1;" vertex="1" parent="d_u-ACmsa0czZYW_iE1Z-24">
          <mxGeometry y="182" width="160" height="26" as="geometry" />
        </mxCell>
        <mxCell id="d_u-ACmsa0czZYW_iE1Z-32" value="&lt;font style=&quot;color: rgb(250, 219, 117);&quot;&gt;ProprieteID&lt;/font&gt;" style="text;strokeColor=none;fillColor=none;align=left;verticalAlign=top;spacingLeft=4;spacingRight=4;overflow=hidden;rotatable=0;points=[[0,0.5],[1,0.5]];portConstraint=eastwest;whiteSpace=wrap;html=1;" vertex="1" parent="d_u-ACmsa0czZYW_iE1Z-24">
          <mxGeometry y="208" width="160" height="26" as="geometry" />
        </mxCell>
        <mxCell id="d_u-ACmsa0czZYW_iE1Z-33" style="edgeStyle=orthogonalEdgeStyle;rounded=0;orthogonalLoop=1;jettySize=auto;html=1;entryX=0;entryY=0.5;entryDx=0;entryDy=0;" edge="1" parent="1" source="d_u-ACmsa0czZYW_iE1Z-28" target="d_u-ACmsa0czZYW_iE1Z-1">
          <mxGeometry relative="1" as="geometry" />
        </mxCell>
        <mxCell id="d_u-ACmsa0czZYW_iE1Z-34" value="&lt;b&gt;Photo&lt;/b&gt;" style="swimlane;fontStyle=0;childLayout=stackLayout;horizontal=1;startSize=26;fillColor=#FADB75;horizontalStack=0;resizeParent=1;resizeParentMax=0;resizeLast=0;collapsible=1;marginBottom=0;whiteSpace=wrap;html=1;strokeColor=#272629;" vertex="1" parent="1">
          <mxGeometry x="1120" y="2116" width="160" height="130" as="geometry" />
        </mxCell>
        <mxCell id="d_u-ACmsa0czZYW_iE1Z-35" value="&lt;b&gt;&lt;u&gt;PhotoID&lt;/u&gt;&lt;/b&gt;" style="text;strokeColor=none;fillColor=none;align=left;verticalAlign=top;spacingLeft=4;spacingRight=4;overflow=hidden;rotatable=0;points=[[0,0.5],[1,0.5]];portConstraint=eastwest;whiteSpace=wrap;html=1;" vertex="1" parent="d_u-ACmsa0czZYW_iE1Z-34">
          <mxGeometry y="26" width="160" height="26" as="geometry" />
        </mxCell>
        <mxCell id="d_u-ACmsa0czZYW_iE1Z-36" value="PhotoURL" style="text;strokeColor=none;fillColor=none;align=left;verticalAlign=top;spacingLeft=4;spacingRight=4;overflow=hidden;rotatable=0;points=[[0,0.5],[1,0.5]];portConstraint=eastwest;whiteSpace=wrap;html=1;" vertex="1" parent="d_u-ACmsa0czZYW_iE1Z-34">
          <mxGeometry y="52" width="160" height="26" as="geometry" />
        </mxCell>
        <mxCell id="d_u-ACmsa0czZYW_iE1Z-37" value="EstPrincipale" style="text;strokeColor=none;fillColor=none;align=left;verticalAlign=top;spacingLeft=4;spacingRight=4;overflow=hidden;rotatable=0;points=[[0,0.5],[1,0.5]];portConstraint=eastwest;whiteSpace=wrap;html=1;" vertex="1" parent="d_u-ACmsa0czZYW_iE1Z-34">
          <mxGeometry y="78" width="160" height="26" as="geometry" />
        </mxCell>
        <mxCell id="d_u-ACmsa0czZYW_iE1Z-38" value="&lt;font style=&quot;color: rgb(250, 219, 117);&quot;&gt;ProprieteID&lt;/font&gt;" style="text;strokeColor=none;fillColor=none;align=left;verticalAlign=top;spacingLeft=4;spacingRight=4;overflow=hidden;rotatable=0;points=[[0,0.5],[1,0.5]];portConstraint=eastwest;whiteSpace=wrap;html=1;" vertex="1" parent="d_u-ACmsa0czZYW_iE1Z-34">
          <mxGeometry y="104" width="160" height="26" as="geometry" />
        </mxCell>
        <mxCell id="d_u-ACmsa0czZYW_iE1Z-39" value="&lt;b&gt;TypePropriete&lt;/b&gt;" style="swimlane;fontStyle=0;childLayout=stackLayout;horizontal=1;startSize=26;fillColor=#FADB75;horizontalStack=0;resizeParent=1;resizeParentMax=0;resizeLast=0;collapsible=1;marginBottom=0;whiteSpace=wrap;html=1;strokeColor=#272629;" vertex="1" parent="1">
          <mxGeometry x="1120" y="1700" width="160" height="78" as="geometry" />
        </mxCell>
        <mxCell id="d_u-ACmsa0czZYW_iE1Z-40" value="&lt;b&gt;&lt;u&gt;TypeProprieteID&lt;/u&gt;&lt;/b&gt;" style="text;strokeColor=none;fillColor=none;align=left;verticalAlign=top;spacingLeft=4;spacingRight=4;overflow=hidden;rotatable=0;points=[[0,0.5],[1,0.5]];portConstraint=eastwest;whiteSpace=wrap;html=1;" vertex="1" parent="d_u-ACmsa0czZYW_iE1Z-39">
          <mxGeometry y="26" width="160" height="26" as="geometry" />
        </mxCell>
        <mxCell id="d_u-ACmsa0czZYW_iE1Z-41" value="libelleTypePropriete" style="text;strokeColor=none;fillColor=none;align=left;verticalAlign=top;spacingLeft=4;spacingRight=4;overflow=hidden;rotatable=0;points=[[0,0.5],[1,0.5]];portConstraint=eastwest;whiteSpace=wrap;html=1;" vertex="1" parent="d_u-ACmsa0czZYW_iE1Z-39">
          <mxGeometry y="52" width="160" height="26" as="geometry" />
        </mxCell>
        <mxCell id="d_u-ACmsa0czZYW_iE1Z-42" style="edgeStyle=orthogonalEdgeStyle;rounded=0;orthogonalLoop=1;jettySize=auto;html=1;entryX=0;entryY=0.5;entryDx=0;entryDy=0;" edge="1" parent="1" source="d_u-ACmsa0czZYW_iE1Z-10" target="d_u-ACmsa0czZYW_iE1Z-40">
          <mxGeometry relative="1" as="geometry" />
        </mxCell>
        <mxCell id="d_u-ACmsa0czZYW_iE1Z-44" style="edgeStyle=orthogonalEdgeStyle;rounded=0;orthogonalLoop=1;jettySize=auto;html=1;exitX=0;exitY=0.5;exitDx=0;exitDy=0;entryX=1;entryY=0.5;entryDx=0;entryDy=0;" edge="1" parent="1" source="d_u-ACmsa0czZYW_iE1Z-35" target="d_u-ACmsa0czZYW_iE1Z-12">
          <mxGeometry relative="1" as="geometry" />
        </mxCell>
        <mxCell id="d_u-ACmsa0czZYW_iE1Z-78" style="edgeStyle=orthogonalEdgeStyle;rounded=0;orthogonalLoop=1;jettySize=auto;html=1;entryX=1;entryY=0.5;entryDx=0;entryDy=0;startArrow=classic;startFill=1;endArrow=none;endFill=0;" edge="1" parent="1" source="d_u-ACmsa0czZYW_iE1Z-45" target="d_u-ACmsa0czZYW_iE1Z-68">
          <mxGeometry relative="1" as="geometry" />
        </mxCell>
        <mxCell id="d_u-ACmsa0czZYW_iE1Z-45" value="&lt;b&gt;Personne&lt;/b&gt;" style="swimlane;fontStyle=0;childLayout=stackLayout;horizontal=1;startSize=26;fillColor=#FADB75;horizontalStack=0;resizeParent=1;resizeParentMax=0;resizeLast=0;collapsible=1;marginBottom=0;whiteSpace=wrap;html=1;strokeColor=#272629;" vertex="1" parent="1">
          <mxGeometry x="1320" y="1882" width="160" height="182" as="geometry" />
        </mxCell>
        <mxCell id="d_u-ACmsa0czZYW_iE1Z-46" value="&lt;b&gt;&lt;u&gt;PersonneID&lt;/u&gt;&lt;/b&gt;" style="text;strokeColor=none;fillColor=none;align=left;verticalAlign=top;spacingLeft=4;spacingRight=4;overflow=hidden;rotatable=0;points=[[0,0.5],[1,0.5]];portConstraint=eastwest;whiteSpace=wrap;html=1;" vertex="1" parent="d_u-ACmsa0czZYW_iE1Z-45">
          <mxGeometry y="26" width="160" height="26" as="geometry" />
        </mxCell>
        <mxCell id="d_u-ACmsa0czZYW_iE1Z-47" value="PrenomPersonne" style="text;strokeColor=none;fillColor=none;align=left;verticalAlign=top;spacingLeft=4;spacingRight=4;overflow=hidden;rotatable=0;points=[[0,0.5],[1,0.5]];portConstraint=eastwest;whiteSpace=wrap;html=1;" vertex="1" parent="d_u-ACmsa0czZYW_iE1Z-45">
          <mxGeometry y="52" width="160" height="26" as="geometry" />
        </mxCell>
        <mxCell id="d_u-ACmsa0czZYW_iE1Z-48" value="NomPersonne" style="text;strokeColor=none;fillColor=none;align=left;verticalAlign=top;spacingLeft=4;spacingRight=4;overflow=hidden;rotatable=0;points=[[0,0.5],[1,0.5]];portConstraint=eastwest;whiteSpace=wrap;html=1;" vertex="1" parent="d_u-ACmsa0czZYW_iE1Z-45">
          <mxGeometry y="78" width="160" height="26" as="geometry" />
        </mxCell>
        <mxCell id="d_u-ACmsa0czZYW_iE1Z-49" value="EmailPersonne" style="text;strokeColor=none;fillColor=none;align=left;verticalAlign=top;spacingLeft=4;spacingRight=4;overflow=hidden;rotatable=0;points=[[0,0.5],[1,0.5]];portConstraint=eastwest;whiteSpace=wrap;html=1;" vertex="1" parent="d_u-ACmsa0czZYW_iE1Z-45">
          <mxGeometry y="104" width="160" height="26" as="geometry" />
        </mxCell>
        <mxCell id="d_u-ACmsa0czZYW_iE1Z-50" value="NumeroPersonne" style="text;strokeColor=none;fillColor=none;align=left;verticalAlign=top;spacingLeft=4;spacingRight=4;overflow=hidden;rotatable=0;points=[[0,0.5],[1,0.5]];portConstraint=eastwest;whiteSpace=wrap;html=1;" vertex="1" parent="d_u-ACmsa0czZYW_iE1Z-45">
          <mxGeometry y="130" width="160" height="26" as="geometry" />
        </mxCell>
        <mxCell id="d_u-ACmsa0czZYW_iE1Z-51" value="Adresse" style="text;strokeColor=none;fillColor=none;align=left;verticalAlign=top;spacingLeft=4;spacingRight=4;overflow=hidden;rotatable=0;points=[[0,0.5],[1,0.5]];portConstraint=eastwest;whiteSpace=wrap;html=1;" vertex="1" parent="d_u-ACmsa0czZYW_iE1Z-45">
          <mxGeometry y="156" width="160" height="26" as="geometry" />
        </mxCell>
        <mxCell id="d_u-ACmsa0czZYW_iE1Z-52" style="edgeStyle=orthogonalEdgeStyle;rounded=0;orthogonalLoop=1;jettySize=auto;html=1;entryX=0;entryY=0.5;entryDx=0;entryDy=0;" edge="1" parent="1" source="d_u-ACmsa0czZYW_iE1Z-11" target="d_u-ACmsa0czZYW_iE1Z-45">
          <mxGeometry relative="1" as="geometry" />
        </mxCell>
        <mxCell id="d_u-ACmsa0czZYW_iE1Z-60" value="&lt;b&gt;Evenement&lt;/b&gt;" style="swimlane;fontStyle=0;childLayout=stackLayout;horizontal=1;startSize=26;fillColor=#FADB75;horizontalStack=0;resizeParent=1;resizeParentMax=0;resizeLast=0;collapsible=1;marginBottom=0;whiteSpace=wrap;html=1;strokeColor=#272629;" vertex="1" parent="1">
          <mxGeometry x="400" y="2300" width="160" height="260" as="geometry" />
        </mxCell>
        <mxCell id="d_u-ACmsa0czZYW_iE1Z-61" value="&lt;b&gt;&lt;u&gt;EvenementI&lt;/u&gt;&lt;/b&gt;D" style="text;strokeColor=none;fillColor=none;align=left;verticalAlign=top;spacingLeft=4;spacingRight=4;overflow=hidden;rotatable=0;points=[[0,0.5],[1,0.5]];portConstraint=eastwest;whiteSpace=wrap;html=1;" vertex="1" parent="d_u-ACmsa0czZYW_iE1Z-60">
          <mxGeometry y="26" width="160" height="26" as="geometry" />
        </mxCell>
        <mxCell id="d_u-ACmsa0czZYW_iE1Z-62" value="TitreEvenement" style="text;strokeColor=none;fillColor=none;align=left;verticalAlign=top;spacingLeft=4;spacingRight=4;overflow=hidden;rotatable=0;points=[[0,0.5],[1,0.5]];portConstraint=eastwest;whiteSpace=wrap;html=1;" vertex="1" parent="d_u-ACmsa0czZYW_iE1Z-60">
          <mxGeometry y="52" width="160" height="26" as="geometry" />
        </mxCell>
        <mxCell id="d_u-ACmsa0czZYW_iE1Z-63" value="NotesEvenement" style="text;strokeColor=none;fillColor=none;align=left;verticalAlign=top;spacingLeft=4;spacingRight=4;overflow=hidden;rotatable=0;points=[[0,0.5],[1,0.5]];portConstraint=eastwest;whiteSpace=wrap;html=1;" vertex="1" parent="d_u-ACmsa0czZYW_iE1Z-60">
          <mxGeometry y="78" width="160" height="26" as="geometry" />
        </mxCell>
        <mxCell id="d_u-ACmsa0czZYW_iE1Z-64" value="DateHeureDebutEvenement" style="text;strokeColor=none;fillColor=none;align=left;verticalAlign=top;spacingLeft=4;spacingRight=4;overflow=hidden;rotatable=0;points=[[0,0.5],[1,0.5]];portConstraint=eastwest;whiteSpace=wrap;html=1;" vertex="1" parent="d_u-ACmsa0czZYW_iE1Z-60">
          <mxGeometry y="104" width="160" height="26" as="geometry" />
        </mxCell>
        <mxCell id="d_u-ACmsa0czZYW_iE1Z-65" value="DateHeureFinEvenement" style="text;strokeColor=none;fillColor=none;align=left;verticalAlign=top;spacingLeft=4;spacingRight=4;overflow=hidden;rotatable=0;points=[[0,0.5],[1,0.5]];portConstraint=eastwest;whiteSpace=wrap;html=1;" vertex="1" parent="d_u-ACmsa0czZYW_iE1Z-60">
          <mxGeometry y="130" width="160" height="26" as="geometry" />
        </mxCell>
        <mxCell id="d_u-ACmsa0czZYW_iE1Z-66" value="StatutEvenement" style="text;strokeColor=none;fillColor=none;align=left;verticalAlign=top;spacingLeft=4;spacingRight=4;overflow=hidden;rotatable=0;points=[[0,0.5],[1,0.5]];portConstraint=eastwest;whiteSpace=wrap;html=1;" vertex="1" parent="d_u-ACmsa0czZYW_iE1Z-60">
          <mxGeometry y="156" width="160" height="26" as="geometry" />
        </mxCell>
        <mxCell id="d_u-ACmsa0czZYW_iE1Z-67" value="&lt;font style=&quot;color: rgb(250, 219, 117);&quot;&gt;PersonneID&lt;/font&gt;" style="text;strokeColor=none;fillColor=none;align=left;verticalAlign=top;spacingLeft=4;spacingRight=4;overflow=hidden;rotatable=0;points=[[0,0.5],[1,0.5]];portConstraint=eastwest;whiteSpace=wrap;html=1;" vertex="1" parent="d_u-ACmsa0czZYW_iE1Z-60">
          <mxGeometry y="182" width="160" height="26" as="geometry" />
        </mxCell>
        <mxCell id="d_u-ACmsa0czZYW_iE1Z-68" value="&lt;font style=&quot;color: rgb(250, 219, 117);&quot;&gt;DossierID&lt;/font&gt;" style="text;strokeColor=none;fillColor=none;align=left;verticalAlign=top;spacingLeft=4;spacingRight=4;overflow=hidden;rotatable=0;points=[[0,0.5],[1,0.5]];portConstraint=eastwest;whiteSpace=wrap;html=1;" vertex="1" parent="d_u-ACmsa0czZYW_iE1Z-60">
          <mxGeometry y="208" width="160" height="26" as="geometry" />
        </mxCell>
        <mxCell id="d_u-ACmsa0czZYW_iE1Z-69" value="&lt;font style=&quot;color: rgb(250, 219, 117);&quot;&gt;TypeEvenementID&lt;/font&gt;" style="text;strokeColor=none;fillColor=none;align=left;verticalAlign=top;spacingLeft=4;spacingRight=4;overflow=hidden;rotatable=0;points=[[0,0.5],[1,0.5]];portConstraint=eastwest;whiteSpace=wrap;html=1;" vertex="1" parent="d_u-ACmsa0czZYW_iE1Z-60">
          <mxGeometry y="234" width="160" height="26" as="geometry" />
        </mxCell>
        <mxCell id="d_u-ACmsa0czZYW_iE1Z-73" value="&lt;b&gt;TypeEvenement&lt;/b&gt;" style="swimlane;fontStyle=0;childLayout=stackLayout;horizontal=1;startSize=26;fillColor=#FADB75;horizontalStack=0;resizeParent=1;resizeParentMax=0;resizeLast=0;collapsible=1;marginBottom=0;whiteSpace=wrap;html=1;strokeColor=#272629;" vertex="1" parent="1">
          <mxGeometry x="760" y="2300" width="160" height="78" as="geometry" />
        </mxCell>
        <mxCell id="d_u-ACmsa0czZYW_iE1Z-74" value="&lt;b&gt;&lt;u&gt;TypeEvenementID&lt;/u&gt;&lt;/b&gt;" style="text;strokeColor=none;fillColor=none;align=left;verticalAlign=top;spacingLeft=4;spacingRight=4;overflow=hidden;rotatable=0;points=[[0,0.5],[1,0.5]];portConstraint=eastwest;whiteSpace=wrap;html=1;" vertex="1" parent="d_u-ACmsa0czZYW_iE1Z-73">
          <mxGeometry y="26" width="160" height="26" as="geometry" />
        </mxCell>
        <mxCell id="d_u-ACmsa0czZYW_iE1Z-75" value="libelleTypeEvenement" style="text;strokeColor=none;fillColor=none;align=left;verticalAlign=top;spacingLeft=4;spacingRight=4;overflow=hidden;rotatable=0;points=[[0,0.5],[1,0.5]];portConstraint=eastwest;whiteSpace=wrap;html=1;" vertex="1" parent="d_u-ACmsa0czZYW_iE1Z-73">
          <mxGeometry y="52" width="160" height="26" as="geometry" />
        </mxCell>
        <mxCell id="d_u-ACmsa0czZYW_iE1Z-76" style="edgeStyle=orthogonalEdgeStyle;rounded=0;orthogonalLoop=1;jettySize=auto;html=1;entryX=0;entryY=0.5;entryDx=0;entryDy=0;" edge="1" parent="1" source="d_u-ACmsa0czZYW_iE1Z-61" target="d_u-ACmsa0czZYW_iE1Z-73">
          <mxGeometry relative="1" as="geometry" />
        </mxCell>
        <mxCell id="d_u-ACmsa0czZYW_iE1Z-79" value="&lt;b&gt;DossierPersonne&lt;/b&gt;" style="swimlane;fontStyle=0;childLayout=stackLayout;horizontal=1;startSize=26;fillColor=#FADB75;horizontalStack=0;resizeParent=1;resizeParentMax=0;resizeLast=0;collapsible=1;marginBottom=0;whiteSpace=wrap;html=1;strokeColor=#272629;" vertex="1" parent="1">
          <mxGeometry x="760" y="1510" width="160" height="104" as="geometry" />
        </mxCell>
        <mxCell id="d_u-ACmsa0czZYW_iE1Z-85" value="&lt;font style=&quot;color: rgb(250, 219, 117);&quot;&gt;&lt;u&gt;&lt;b&gt;DossierPersonneID&lt;/b&gt;&lt;/u&gt;&lt;/font&gt;" style="text;strokeColor=none;fillColor=none;align=left;verticalAlign=top;spacingLeft=4;spacingRight=4;overflow=hidden;rotatable=0;points=[[0,0.5],[1,0.5]];portConstraint=eastwest;whiteSpace=wrap;html=1;" vertex="1" parent="d_u-ACmsa0czZYW_iE1Z-79">
          <mxGeometry y="26" width="160" height="26" as="geometry" />
        </mxCell>
        <mxCell id="d_u-ACmsa0czZYW_iE1Z-83" value="&lt;font style=&quot;color: rgb(250, 219, 117);&quot;&gt;PersonneID&lt;/font&gt;" style="text;strokeColor=none;fillColor=none;align=left;verticalAlign=top;spacingLeft=4;spacingRight=4;overflow=hidden;rotatable=0;points=[[0,0.5],[1,0.5]];portConstraint=eastwest;whiteSpace=wrap;html=1;" vertex="1" parent="d_u-ACmsa0czZYW_iE1Z-79">
          <mxGeometry y="52" width="160" height="26" as="geometry" />
        </mxCell>
        <mxCell id="d_u-ACmsa0czZYW_iE1Z-84" value="&lt;font style=&quot;color: rgb(250, 219, 117);&quot;&gt;DossierID&lt;/font&gt;" style="text;strokeColor=none;fillColor=none;align=left;verticalAlign=top;spacingLeft=4;spacingRight=4;overflow=hidden;rotatable=0;points=[[0,0.5],[1,0.5]];portConstraint=eastwest;whiteSpace=wrap;html=1;" vertex="1" parent="d_u-ACmsa0czZYW_iE1Z-79">
          <mxGeometry y="78" width="160" height="26" as="geometry" />
        </mxCell>
        <mxCell id="d_u-ACmsa0czZYW_iE1Z-86" style="edgeStyle=orthogonalEdgeStyle;rounded=0;orthogonalLoop=1;jettySize=auto;html=1;exitX=0;exitY=0.5;exitDx=0;exitDy=0;entryX=0.75;entryY=0;entryDx=0;entryDy=0;" edge="1" parent="1" source="d_u-ACmsa0czZYW_iE1Z-83" target="d_u-ACmsa0czZYW_iE1Z-24">
          <mxGeometry relative="1" as="geometry" />
        </mxCell>
        <mxCell id="d_u-ACmsa0czZYW_iE1Z-87" style="edgeStyle=orthogonalEdgeStyle;rounded=0;orthogonalLoop=1;jettySize=auto;html=1;entryX=0.5;entryY=0;entryDx=0;entryDy=0;" edge="1" parent="1" source="d_u-ACmsa0czZYW_iE1Z-83" target="d_u-ACmsa0czZYW_iE1Z-39">
          <mxGeometry relative="1" as="geometry" />
        </mxCell>
        <mxCell id="d_u-ACmsa0czZYW_iE1Z-88" value="&lt;b&gt;Agent&lt;/b&gt;" style="swimlane;fontStyle=0;childLayout=stackLayout;horizontal=1;startSize=26;fillColor=#FADB75;horizontalStack=0;resizeParent=1;resizeParentMax=0;resizeLast=0;collapsible=1;marginBottom=0;whiteSpace=wrap;html=1;strokeColor=#272629;" vertex="1" parent="1">
          <mxGeometry x="760" y="1240" width="160" height="182" as="geometry" />
        </mxCell>
        <mxCell id="d_u-ACmsa0czZYW_iE1Z-89" value="&lt;b&gt;&lt;u&gt;AgentID&lt;/u&gt;&lt;/b&gt;" style="text;strokeColor=none;fillColor=none;align=left;verticalAlign=top;spacingLeft=4;spacingRight=4;overflow=hidden;rotatable=0;points=[[0,0.5],[1,0.5]];portConstraint=eastwest;whiteSpace=wrap;html=1;" vertex="1" parent="d_u-ACmsa0czZYW_iE1Z-88">
          <mxGeometry y="26" width="160" height="26" as="geometry" />
        </mxCell>
        <mxCell id="d_u-ACmsa0czZYW_iE1Z-90" value="PrenomAgent" style="text;strokeColor=none;fillColor=none;align=left;verticalAlign=top;spacingLeft=4;spacingRight=4;overflow=hidden;rotatable=0;points=[[0,0.5],[1,0.5]];portConstraint=eastwest;whiteSpace=wrap;html=1;" vertex="1" parent="d_u-ACmsa0czZYW_iE1Z-88">
          <mxGeometry y="52" width="160" height="26" as="geometry" />
        </mxCell>
        <mxCell id="d_u-ACmsa0czZYW_iE1Z-91" value="NomAgent" style="text;strokeColor=none;fillColor=none;align=left;verticalAlign=top;spacingLeft=4;spacingRight=4;overflow=hidden;rotatable=0;points=[[0,0.5],[1,0.5]];portConstraint=eastwest;whiteSpace=wrap;html=1;" vertex="1" parent="d_u-ACmsa0czZYW_iE1Z-88">
          <mxGeometry y="78" width="160" height="26" as="geometry" />
        </mxCell>
        <mxCell id="d_u-ACmsa0czZYW_iE1Z-92" value="NumeroAgent" style="text;strokeColor=none;fillColor=none;align=left;verticalAlign=top;spacingLeft=4;spacingRight=4;overflow=hidden;rotatable=0;points=[[0,0.5],[1,0.5]];portConstraint=eastwest;whiteSpace=wrap;html=1;" vertex="1" parent="d_u-ACmsa0czZYW_iE1Z-88">
          <mxGeometry y="104" width="160" height="26" as="geometry" />
        </mxCell>
        <mxCell id="d_u-ACmsa0czZYW_iE1Z-93" value="EmailAgent" style="text;strokeColor=none;fillColor=none;align=left;verticalAlign=top;spacingLeft=4;spacingRight=4;overflow=hidden;rotatable=0;points=[[0,0.5],[1,0.5]];portConstraint=eastwest;whiteSpace=wrap;html=1;" vertex="1" parent="d_u-ACmsa0czZYW_iE1Z-88">
          <mxGeometry y="130" width="160" height="26" as="geometry" />
        </mxCell>
        <mxCell id="d_u-ACmsa0czZYW_iE1Z-94" value="MotDePasseAgent" style="text;strokeColor=none;fillColor=none;align=left;verticalAlign=top;spacingLeft=4;spacingRight=4;overflow=hidden;rotatable=0;points=[[0,0.5],[1,0.5]];portConstraint=eastwest;whiteSpace=wrap;html=1;" vertex="1" parent="d_u-ACmsa0czZYW_iE1Z-88">
          <mxGeometry y="156" width="160" height="26" as="geometry" />
        </mxCell>
        <mxCell id="d_u-ACmsa0czZYW_iE1Z-99" style="edgeStyle=orthogonalEdgeStyle;rounded=0;orthogonalLoop=1;jettySize=auto;html=1;entryX=0;entryY=0.5;entryDx=0;entryDy=0;" edge="1" parent="1" source="d_u-ACmsa0czZYW_iE1Z-95" target="d_u-ACmsa0czZYW_iE1Z-68">
          <mxGeometry relative="1" as="geometry" />
        </mxCell>
        <mxCell id="d_u-ACmsa0czZYW_iE1Z-100" style="edgeStyle=orthogonalEdgeStyle;rounded=0;orthogonalLoop=1;jettySize=auto;html=1;entryX=0;entryY=0.5;entryDx=0;entryDy=0;" edge="1" parent="1" source="d_u-ACmsa0czZYW_iE1Z-95" target="d_u-ACmsa0czZYW_iE1Z-89">
          <mxGeometry relative="1" as="geometry" />
        </mxCell>
        <mxCell id="d_u-ACmsa0czZYW_iE1Z-95" value="&lt;b&gt;AgentEvenement&lt;/b&gt;" style="swimlane;fontStyle=0;childLayout=stackLayout;horizontal=1;startSize=26;fillColor=#FADB75;horizontalStack=0;resizeParent=1;resizeParentMax=0;resizeLast=0;collapsible=1;marginBottom=0;whiteSpace=wrap;html=1;strokeColor=#272629;" vertex="1" parent="1">
          <mxGeometry x="120" y="1921" width="160" height="104" as="geometry" />
        </mxCell>
        <mxCell id="d_u-ACmsa0czZYW_iE1Z-96" value="&lt;font style=&quot;color: rgb(250, 219, 117);&quot;&gt;&lt;u&gt;&lt;b&gt;AgentEvenementID&lt;/b&gt;&lt;/u&gt;&lt;/font&gt;" style="text;strokeColor=none;fillColor=none;align=left;verticalAlign=top;spacingLeft=4;spacingRight=4;overflow=hidden;rotatable=0;points=[[0,0.5],[1,0.5]];portConstraint=eastwest;whiteSpace=wrap;html=1;" vertex="1" parent="d_u-ACmsa0czZYW_iE1Z-95">
          <mxGeometry y="26" width="160" height="26" as="geometry" />
        </mxCell>
        <mxCell id="d_u-ACmsa0czZYW_iE1Z-97" value="&lt;font style=&quot;color: rgb(250, 219, 117);&quot;&gt;AgentID&lt;/font&gt;" style="text;strokeColor=none;fillColor=none;align=left;verticalAlign=top;spacingLeft=4;spacingRight=4;overflow=hidden;rotatable=0;points=[[0,0.5],[1,0.5]];portConstraint=eastwest;whiteSpace=wrap;html=1;" vertex="1" parent="d_u-ACmsa0czZYW_iE1Z-95">
          <mxGeometry y="52" width="160" height="26" as="geometry" />
        </mxCell>
        <mxCell id="d_u-ACmsa0czZYW_iE1Z-98" value="&lt;font style=&quot;color: rgb(250, 219, 117);&quot;&gt;EvenementID&lt;/font&gt;" style="text;strokeColor=none;fillColor=none;align=left;verticalAlign=top;spacingLeft=4;spacingRight=4;overflow=hidden;rotatable=0;points=[[0,0.5],[1,0.5]];portConstraint=eastwest;whiteSpace=wrap;html=1;" vertex="1" parent="d_u-ACmsa0czZYW_iE1Z-95">
          <mxGeometry y="78" width="160" height="26" as="geometry" />
        </mxCell>
      </root>
    </mxGraphModel>
  </diagram>
</mxfile>
